<svg width="20" height="21" viewBox="0 0 20 21" fill="none" xmlns="http://www.w3.org/2000/svg">
<path d="M14.8333 7.1543C14.8333 4.39596 12.5917 2.1543 9.83333 2.1543C7.075 2.1543 4.83333 4.39596 4.83333 7.1543C4.83333 10.9043 9.83333 16.321 9.83333 16.321C9.83333 16.321 14.8333 10.9043 14.8333 7.1543ZM8.16667 7.1543C8.16667 6.23763 8.91667 5.48763 9.83333 5.48763C10.75 5.48763 11.5 6.23763 11.5 7.1543C11.5 7.59632 11.3244 8.02025 11.0118 8.33281C10.6993 8.64537 10.2754 8.82096 9.83333 8.82096C9.39131 8.82096 8.96738 8.64537 8.65482 8.33281C8.34226 8.02025 8.16667 7.59632 8.16667 7.1543ZM4 17.1543V18.821H15.6667V17.1543H4Z" fill="#FFFCFB"/>
</svg>
