<svg width="20" height="21" viewBox="0 0 20 21" fill="none" xmlns="http://www.w3.org/2000/svg">
<path d="M5.95 4.82096C6 5.56263 6.125 6.28763 6.325 6.9793L5.325 7.9793C4.98333 6.9793 4.76667 5.92096 4.69167 4.82096H5.95ZM14.1667 14.8376C14.875 15.0376 15.6 15.1626 16.3333 15.2126V16.4543C15.2333 16.3793 14.175 16.1626 13.1667 15.8293L14.1667 14.8376ZM6.75 3.1543H3.83333C3.375 3.1543 3 3.5293 3 3.98763C3 11.8126 9.34167 18.1543 17.1667 18.1543C17.625 18.1543 18 17.7793 18 17.321V14.4126C18 13.9543 17.625 13.5793 17.1667 13.5793C16.1333 13.5793 15.125 13.4126 14.1917 13.1043C14.1092 13.0735 14.0214 13.0593 13.9333 13.0626C13.7167 13.0626 13.5083 13.146 13.3417 13.3043L11.5083 15.1376C9.14622 13.9296 7.22472 12.0081 6.01667 9.64596L7.85 7.81263C8.08333 7.5793 8.15 7.2543 8.05833 6.96263C7.74277 6.00254 7.58242 4.99825 7.58333 3.98763C7.58333 3.5293 7.20833 3.1543 6.75 3.1543Z" fill="#FFFCFB"/>
</svg>
