<svg width="48" height="48" viewBox="0 0 48 48" fill="none" xmlns="http://www.w3.org/2000/svg">
<path d="M18 30H11.8C11 30 10.408 29.642 10.024 28.926C9.64001 28.21 9.68201 27.518 10.15 26.85L25.1 5.35C25.4333 4.88334 25.8667 4.55867 26.4 4.376C26.9333 4.19334 27.4833 4.20134 28.05 4.4C28.6167 4.59867 29.0333 4.94867 29.3 5.45C29.5667 5.95134 29.6667 6.48467 29.6 7.05L28 20H35.75C36.6167 20 37.2253 20.3833 37.576 21.15C37.9267 21.9167 37.818 22.6333 37.25 23.3L20.8 43C20.4333 43.4333 19.9833 43.7167 19.45 43.85C18.9167 43.9833 18.4 43.9333 17.9 43.7C17.4 43.4667 17.0087 43.1087 16.726 42.626C16.4433 42.1433 16.3347 41.618 16.4 41.05L18 30Z" fill="#FFBC4C"/>
</svg>
