<svg width="48" height="48" viewBox="0 0 48 48" fill="none" xmlns="http://www.w3.org/2000/svg">
<path d="M40 27.5C40 27.1022 39.842 26.7206 39.5607 26.4393C39.2794 26.158 38.8978 26 38.5 26H32.5C32.1022 26 31.7206 26.158 31.4393 26.4393C31.158 26.7206 31 27.1022 31 27.5V41H28V8.5C28 7.044 27.996 6.1 27.904 5.408C27.816 4.758 27.674 4.554 27.56 4.44C27.446 4.326 27.242 4.184 26.592 4.096C25.898 4.004 24.956 4 23.5 4C22.044 4 21.1 4.004 20.408 4.096C19.758 4.184 19.554 4.326 19.44 4.44C19.326 4.554 19.184 4.758 19.096 5.408C19.004 6.102 19 7.044 19 8.5V41H16V17.5C16 17.1022 15.842 16.7206 15.5607 16.4393C15.2794 16.158 14.8978 16 14.5 16H8.5C8.10218 16 7.72064 16.158 7.43934 16.4393C7.15804 16.7206 7 17.1022 7 17.5V41H3.5C3.10218 41 2.72064 41.158 2.43934 41.4393C2.15804 41.7206 2 42.1022 2 42.5C2 42.8978 2.15804 43.2794 2.43934 43.5607C2.72064 43.842 3.10218 44 3.5 44H43.5C43.8978 44 44.2794 43.842 44.5607 43.5607C44.842 43.2794 45 42.8978 45 42.5C45 42.1022 44.842 41.7206 44.5607 41.4393C44.2794 41.158 43.8978 41 43.5 41H40V27.5Z" fill="#FFBC4C"/>
</svg>
