<svg width="48" height="48" viewBox="0 0 48 48" fill="none" xmlns="http://www.w3.org/2000/svg">
<path d="M34 6.68003C37.0404 8.43541 39.5652 10.9602 41.3205 14.0006C43.0759 17.041 44 20.4899 44 24.0007C44 27.5114 43.0758 30.9603 41.3204 34.0007C39.565 37.0411 37.0402 39.5658 33.9998 41.3212C30.9594 43.0765 27.5104 44.0006 23.9997 44.0005C20.4889 44.0005 17.04 43.0763 13.9997 41.3209C10.9593 39.5654 8.43458 37.0406 6.67927 34.0002C4.92396 30.9597 3.99991 27.5108 4 24L4.01 23.352C4.12201 19.898 5.1271 16.532 6.92728 13.582C8.72746 10.6321 11.2613 8.19893 14.2818 6.51979C17.3023 4.84065 20.7063 3.97282 24.162 4.0009C27.6177 4.02899 31.0072 4.95202 34 6.68003ZM24 12C23.4696 12 22.9609 12.2107 22.5858 12.5858C22.2107 12.9609 22 13.4696 22 14C20.4087 14 18.8826 14.6322 17.7574 15.7574C16.6321 16.8826 16 18.4087 16 20C16 21.5913 16.6321 23.1175 17.7574 24.2427C18.8826 25.3679 20.4087 26 22 26V30C21.6683 30.0184 21.3372 29.9555 21.0353 29.8168C20.7335 29.678 20.4701 29.4677 20.268 29.204L20.132 29.002C19.8584 28.5607 19.4238 28.2432 18.9203 28.1164C18.4167 27.9897 17.8836 28.0638 17.4337 28.3231C16.9838 28.5823 16.6524 29.0064 16.5095 29.5056C16.3666 30.0048 16.4234 30.54 16.668 30.998C17.1785 31.8834 17.9066 32.6236 18.7834 33.1486C19.6602 33.6737 20.6565 33.966 21.678 33.998H22C21.9996 34.4882 22.1792 34.9615 22.5048 35.328C22.8303 35.6945 23.2792 35.9287 23.766 35.986L24 36C24.5304 36 25.0391 35.7893 25.4142 35.4142C25.7893 35.0392 26 34.5305 26 34L26.352 33.99C27.9112 33.8999 29.3738 33.2054 30.4291 32.054C31.4843 30.9026 32.049 29.3851 32.0032 27.824C31.9574 26.2628 31.3046 24.7811 30.1836 23.6936C29.0627 22.6061 27.5618 21.9985 26 22V18C26.716 17.976 27.342 18.28 27.732 18.796L27.868 18.998C28.1416 19.4393 28.5762 19.7569 29.0797 19.8836C29.5833 20.0103 30.1164 19.9362 30.5663 19.677C31.0162 19.4177 31.3476 18.9937 31.4905 18.4945C31.6334 17.9953 31.5766 17.4601 31.332 17.002C30.8218 16.1163 30.0937 15.3757 29.2169 14.8503C28.3401 14.3249 27.3436 14.0322 26.322 14H26C26 13.4696 25.7893 12.9609 25.4142 12.5858C25.0391 12.2107 24.5304 12 24 12ZM26 26C26.5304 26 27.0391 26.2107 27.4142 26.5858C27.7893 26.9609 28 27.4696 28 28C28 28.5305 27.7893 29.0392 27.4142 29.4142C27.0391 29.7893 26.5304 30 26 30V26ZM22 18V22C21.4696 22 20.9609 21.7893 20.5858 21.4142C20.2107 21.0392 20 20.5305 20 20C20 19.4696 20.2107 18.9609 20.5858 18.5858C20.9609 18.2107 21.4696 18 22 18Z" fill="#FFBC4C"/>
</svg>
